<svg width="400" height="400" xmlns="http://www.w3.org/2000/svg">
  <defs>
    <pattern id="circuit" patternUnits="userSpaceOnUse" width="100" height="100">
      <!-- Horizontal Lines -->
      <line x1="10" y1="20" x2="60" y2="20" stroke="white" stroke-width="1" />
      <line x1="40" y1="50" x2="90" y2="50" stroke="white" stroke-width="1" />
      <line x1="0" y1="80" x2="40" y2="80" stroke="white" stroke-width="1" />
      
      <!-- Vertical Lines -->
      <line x1="20" y1="0" x2="20" y2="30" stroke="white" stroke-width="1" />
      <line x1="50" y1="40" x2="50" y2="90" stroke="white" stroke-width="1" />
      <line x1="80" y1="10" x2="80" y2="60" stroke="white" stroke-width="1" />
      
      <!-- Connection Points -->
      <circle cx="20" cy="20" r="2" fill="white" />
      <circle cx="50" cy="50" r="2" fill="white" />
      <circle cx="80" cy="20" r="2" fill="white" />
      <circle cx="20" cy="80" r="2" fill="white" />
      
      <!-- Connection Nodes -->
      <rect x="78" y="58" width="4" height="4" fill="white" />
      <rect x="18" y="28" width="4" height="4" fill="white" />
      <rect x="48" y="38" width="4" height="4" fill="white" />
      
      <!-- Small Components -->
      <path d="M70 70 L75 75 L70 80 L65 75 Z" fill="none" stroke="white" stroke-width="1" />
      <path d="M30 30 L35 35 L30 40 L25 35 Z" fill="none" stroke="white" stroke-width="1" />
    </pattern>
  </defs>
  
  <rect width="100%" height="100%" fill="url(#circuit)" />
</svg> 