<svg width="32" height="32" viewBox="0 0 32 32" fill="none" xmlns="http://www.w3.org/2000/svg">
  <path d="M16 2C8.268 2 2 8.268 2 16s6.268 14 14 14 14-6.268 14-14S23.732 2 16 2z" fill="url(#paint0_linear)" fill-opacity="0.9"/>
  <path d="M22 10.5c-1.5-1-3.5-1.5-6-1.5-2.5 0-4.5.5-6 1.5-1.5 1-2.5 2.5-3 4.5-.5 2-.5 4 0 6 .5 2 1.5 3.5 3 4.5 1.5 1 3.5 1.5 6 1.5 2.5 0 4.5-.5 6-1.5 1.5-1 2.5-2.5 3-4.5.5-2 .5-4 0-6-.5-2-1.5-3.5-3-4.5zm-10 12c-.8-.6-1.4-1.4-1.8-2.5-.4-1.1-.5-2.3-.3-3.5.2-1.2.7-2.2 1.6-3 .8-.8 2-1.1 3.5-1 1.4.1 2.5.6 3.2 1.5.7.9 1.1 2 1.3 3.2.1 1.3 0 2.5-.5 3.8-.5 1.2-1.2 2.2-2.3 2.8-1.1.6-2.3.8-3.6.7-1.4-.1-2.4-.6-3.1-1.5-.7-.9-1-2-1.1-3.3-.1-1.3.1-2.6.6-3.8.5-1.2 1.3-2.1 2.4-2.7 1.1-.6 2.3-.8 3.6-.5" stroke="url(#paint1_linear)" stroke-width="1.5" stroke-linecap="round" stroke-linejoin="round"/>
  <defs>
    <linearGradient id="paint0_linear" x1="2" y1="16" x2="30" y2="16" gradientUnits="userSpaceOnUse">
      <stop stop-color="#6D28D9" stop-opacity="0.8"/>
      <stop offset="1" stop-color="#3B82F6" stop-opacity="0.8"/>
    </linearGradient>
    <linearGradient id="paint1_linear" x1="9" y1="16" x2="23" y2="16" gradientUnits="userSpaceOnUse">
      <stop stop-color="#8B5CF6"/>
      <stop offset="1" stop-color="#60A5FA"/>
    </linearGradient>
  </defs>
</svg> 