<?xml version="1.0" encoding="UTF-8"?>
<!-- circuit-pattern.svg: Generated for CuriousLabs Vite build, circuit trace overlay -->
<svg width="100" height="100" viewBox="0 0 100 100" xmlns="http://www.w3.org/2000/svg">
  <defs>
    <pattern id="circuit" patternUnits="userSpaceOnUse" width="100" height="100">
      <!-- Horizontal lines -->
      <path d="M10,20 H90 M30,20 V40 H70" stroke="#22d3ee" stroke-width="0.5" fill="none" opacity="0.4"/>
      <path d="M5,50 H95 M40,50 V70 H80" stroke="#d946ef" stroke-width="0.5" fill="none" opacity="0.3"/>
      <path d="M20,80 H80 M60,80 V60 H40" stroke="#22d3ee" stroke-width="0.5" fill="none" opacity="0.4"/>
      
      <!-- Circuit nodes -->
      <circle cx="30" cy="20" r="1.5" fill="#22d3ee" opacity="0.5"/>
      <circle cx="70" cy="40" r="1.5" fill="#22d3ee" opacity="0.5"/>
      <circle cx="40" cy="50" r="1.5" fill="#d946ef" opacity="0.5"/>
      <circle cx="80" cy="70" r="1.5" fill="#d946ef" opacity="0.5"/>
      <circle cx="60" cy="80" r="1.5" fill="#22d3ee" opacity="0.5"/>
      <circle cx="40" cy="60" r="1.5" fill="#22d3ee" opacity="0.5"/>
      
      <!-- Diagonal traces -->
      <path d="M10,10 L30,30 M70,10 L90,30" stroke="#d946ef" stroke-width="0.5" fill="none" opacity="0.3"/>
      <path d="M10,90 L30,70 M70,90 L90,70" stroke="#22d3ee" stroke-width="0.5" fill="none" opacity="0.4"/>
      
      <!-- Hexagonal patterns -->
      <path d="M20,35 l5,-8.7 l10,0 l5,8.7 l-5,8.7 l-10,0 z" stroke="#22d3ee" stroke-width="0.5" fill="none" opacity="0.2"/>
      <path d="M60,65 l5,-8.7 l10,0 l5,8.7 l-5,8.7 l-10,0 z" stroke="#d946ef" stroke-width="0.5" fill="none" opacity="0.2"/>
    </pattern>
  </defs>
  
  <rect width="100%" height="100%" fill="url(#circuit)"/>
</svg> 