<svg width="800" height="600" xmlns="http://www.w3.org/2000/svg">
  <rect width="100%" height="100%" fill="#000"/>
  <g fill="#fff">
    <!-- Generate 100 random stars -->
    <circle cx="50" cy="50" r="1" opacity="0.7"/>
    <circle cx="150" cy="80" r="1.5" opacity="0.8"/>
    <circle cx="250" cy="120" r="1" opacity="0.6"/>
    <circle cx="350" cy="200" r="1.2" opacity="0.9"/>
    <circle cx="450" cy="100" r="1" opacity="0.5"/>
    <circle cx="550" cy="300" r="1.5" opacity="0.8"/>
    <circle cx="650" cy="250" r="1" opacity="0.7"/>
    <circle cx="750" cy="150" r="1.3" opacity="0.6"/>
    <circle cx="100" cy="350" r="1" opacity="0.8"/>
    <circle cx="200" cy="450" r="1.4" opacity="0.7"/>
    <circle cx="300" cy="550" r="1" opacity="0.6"/>
    <circle cx="400" cy="350" r="1.2" opacity="0.9"/>
    <circle cx="500" cy="450" r="1" opacity="0.5"/>
    <circle cx="600" cy="550" r="1.5" opacity="0.8"/>
    <circle cx="700" cy="400" r="1" opacity="0.7"/>
    <circle cx="75" cy="125" r="1.3" opacity="0.6"/>
    <circle cx="175" cy="225" r="1" opacity="0.8"/>
    <circle cx="275" cy="325" r="1.4" opacity="0.7"/>
    <circle cx="375" cy="425" r="1" opacity="0.6"/>
    <circle cx="475" cy="525" r="1.2" opacity="0.9"/>
  </g>
  <radialGradient id="glow" cx="50%" cy="50%" r="100%" fx="50%" fy="50%">
    <stop offset="0%" stop-color="#4c1d95" stop-opacity="0.1"/>
    <stop offset="100%" stop-color="#000000" stop-opacity="0"/>
  </radialGradient>
  <rect width="100%" height="100%" fill="url(#glow)" opacity="0.5"/>
</svg>
