<?xml version="1.0" encoding="UTF-8"?>
<!-- stars-bg.svg: Generated for CuriousLabs Vite build, cosmic starry background -->
<svg width="2048" height="2048" viewBox="0 0 2048 2048" xmlns="http://www.w3.org/2000/svg">
  <defs>
    <!-- Radial gradient for a star -->
    <radialGradient id="starGlow" cx="0.5" cy="0.5" r="0.5" fx="0.5" fy="0.5">
      <stop offset="0%" stop-color="white" stop-opacity="1"/>
      <stop offset="50%" stop-color="white" stop-opacity="0.5"/>
      <stop offset="100%" stop-color="white" stop-opacity="0"/>
    </radialGradient>
    
    <!-- Cyan star glow -->
    <radialGradient id="cyanGlow" cx="0.5" cy="0.5" r="0.5" fx="0.5" fy="0.5">
      <stop offset="0%" stop-color="#22d3ee" stop-opacity="1"/>
      <stop offset="50%" stop-color="#22d3ee" stop-opacity="0.5"/>
      <stop offset="100%" stop-color="#22d3ee" stop-opacity="0"/>
    </radialGradient>
    
    <!-- Lime nebula -->
    <radialGradient id="limeNebula" cx="0.5" cy="0.5" r="1" fx="0.5" fy="0.5">
      <stop offset="0%" stop-color="#84cc16" stop-opacity="0.2"/>
      <stop offset="100%" stop-color="#84cc16" stop-opacity="0"/>
    </radialGradient>
    
    <!-- Magenta nebula -->
    <radialGradient id="magentaNebula" cx="0.5" cy="0.5" r="1" fx="0.5" fy="0.5">
      <stop offset="0%" stop-color="#d946ef" stop-opacity="0.2"/>
      <stop offset="100%" stop-color="#d946ef" stop-opacity="0"/>
    </radialGradient>
    
    <!-- Filter for the noise effect -->
    <filter id="noise" x="0%" y="0%" width="100%" height="100%">
      <feTurbulence type="fractalNoise" baseFrequency="0.65" numOctaves="3" stitchTiles="stitch"/>
      <feComponentTransfer>
        <feFuncR type="discrete" tableValues="0 0.1"/>
        <feFuncG type="discrete" tableValues="0 0.1"/>
        <feFuncB type="discrete" tableValues="0 0.1"/>
      </feComponentTransfer>
    </filter>
  </defs>
  
  <!-- Background -->
  <rect width="2048" height="2048" fill="#0f172a"/>
  
  <!-- Noise overlay for texture -->
  <rect width="2048" height="2048" fill="black" opacity="0.1" filter="url(#noise)"/>
  
  <!-- Nebula clouds -->
  <ellipse cx="600" cy="400" rx="500" ry="300" fill="url(#limeNebula)" opacity="0.2" transform="rotate(15, 600, 400)"/>
  <ellipse cx="1400" cy="1600" rx="600" ry="400" fill="url(#limeNebula)" opacity="0.2" transform="rotate(-10, 1400, 1600)"/>
  <ellipse cx="1600" cy="700" rx="450" ry="350" fill="url(#magentaNebula)" opacity="0.2" transform="rotate(30, 1600, 700)"/>
  <ellipse cx="300" cy="1300" rx="550" ry="350" fill="url(#magentaNebula)" opacity="0.2" transform="rotate(-25, 300, 1300)"/>
  
  <!-- Small stars - white -->
  <g id="smallStars">
    <!-- Row 1 -->
    <circle cx="123" cy="234" r="1" fill="white" opacity="0.8"/>
    <circle cx="345" cy="123" r="1" fill="white" opacity="0.7"/>
    <circle cx="567" cy="345" r="1" fill="white" opacity="0.9"/>
    <circle cx="789" cy="456" r="1" fill="white" opacity="0.8"/>
    <circle cx="901" cy="678" r="1" fill="white" opacity="0.7"/>
    <circle cx="1123" cy="789" r="1" fill="white" opacity="0.9"/>
    <circle cx="1345" cy="901" r="1" fill="white" opacity="0.8"/>
    <circle cx="1567" cy="1123" r="1" fill="white" opacity="0.7"/>
    <circle cx="1789" cy="1345" r="1" fill="white" opacity="0.9"/>
    <circle cx="1901" cy="1567" r="1" fill="white" opacity="0.8"/>
    
    <!-- Row 2 -->
    <circle cx="213" cy="678" r="1" fill="white" opacity="0.7"/>
    <circle cx="435" cy="789" r="1" fill="white" opacity="0.9"/>
    <circle cx="657" cy="901" r="1" fill="white" opacity="0.8"/>
    <circle cx="879" cy="1123" r="1" fill="white" opacity="0.7"/>
    <circle cx="1091" cy="1345" r="1" fill="white" opacity="0.9"/>
    <circle cx="1313" cy="1567" r="1" fill="white" opacity="0.8"/>
    <circle cx="1535" cy="1789" r="1" fill="white" opacity="0.7"/>
    <circle cx="1757" cy="1901" r="1" fill="white" opacity="0.9"/>
    <circle cx="1979" cy="123" r="1" fill="white" opacity="0.8"/>
    <circle cx="101" cy="345" r="1" fill="white" opacity="0.7"/>
    
    <!-- Row 3 -->
    <circle cx="323" cy="456" r="1" fill="white" opacity="0.9"/>
    <circle cx="545" cy="678" r="1" fill="white" opacity="0.8"/>
    <circle cx="767" cy="789" r="1" fill="white" opacity="0.7"/>
    <circle cx="989" cy="901" r="1" fill="white" opacity="0.9"/>
    <circle cx="1211" cy="1123" r="1" fill="white" opacity="0.8"/>
    <circle cx="1433" cy="1345" r="1" fill="white" opacity="0.7"/>
    <circle cx="1655" cy="1567" r="1" fill="white" opacity="0.9"/>
    <circle cx="1877" cy="1789" r="1" fill="white" opacity="0.8"/>
    <circle cx="2009" cy="1901" r="1" fill="white" opacity="0.7"/>
    <circle cx="231" cy="123" r="1" fill="white" opacity="0.9"/>
  </g>
  
  <!-- Use the small stars group multiple times -->
  <use href="#smallStars" x="0" y="0"/>
  <use href="#smallStars" x="200" y="200"/>
  <use href="#smallStars" x="400" y="400"/>
  <use href="#smallStars" x="-200" y="400"/>
  <use href="#smallStars" x="600" y="-200"/>
  
  <!-- Medium stars - white -->
  <circle cx="156" cy="278" r="2" fill="white" opacity="0.9"/>
  <circle cx="723" cy="845" r="2" fill="white" opacity="0.9"/>
  <circle cx="1290" cy="412" r="2" fill="white" opacity="0.9"/>
  <circle cx="1857" cy="979" r="2" fill="white" opacity="0.9"/>
  <circle cx="424" cy="1546" r="2" fill="white" opacity="0.9"/>
  <circle cx="991" cy="1113" r="2" fill="white" opacity="0.9"/>
  <circle cx="1558" cy="1680" r="2" fill="white" opacity="0.9"/>
  <circle cx="125" cy="1247" r="2" fill="white" opacity="0.9"/>
  <circle cx="692" cy="1814" r="2" fill="white" opacity="0.9"/>
  <circle cx="1259" cy="381" r="2" fill="white" opacity="0.9"/>
  
  <!-- Large stars - white with glow -->
  <circle cx="500" cy="200" r="3" fill="white" opacity="1"/>
  <circle cx="500" cy="200" r="6" fill="url(#starGlow)" opacity="0.7"/>
  
  <circle cx="1500" cy="300" r="3" fill="white" opacity="1"/>
  <circle cx="1500" cy="300" r="6" fill="url(#starGlow)" opacity="0.7"/>
  
  <circle cx="300" cy="1700" r="3" fill="white" opacity="1"/>
  <circle cx="300" cy="1700" r="6" fill="url(#starGlow)" opacity="0.7"/>
  
  <circle cx="1700" cy="1600" r="3" fill="white" opacity="1"/>
  <circle cx="1700" cy="1600" r="6" fill="url(#starGlow)" opacity="0.7"/>
  
  <circle cx="1200" cy="900" r="3" fill="white" opacity="1"/>
  <circle cx="1200" cy="900" r="6" fill="url(#starGlow)" opacity="0.7"/>
  
  <!-- Cyan stars with glow -->
  <circle cx="900" cy="300" r="2" fill="#22d3ee" opacity="1"/>
  <circle cx="900" cy="300" r="5" fill="url(#cyanGlow)" opacity="0.7"/>
  
  <circle cx="1800" cy="500" r="2" fill="#22d3ee" opacity="1"/>
  <circle cx="1800" cy="500" r="5" fill="url(#cyanGlow)" opacity="0.7"/>
  
  <circle cx="400" cy="1200" r="2" fill="#22d3ee" opacity="1"/>
  <circle cx="400" cy="1200" r="5" fill="url(#cyanGlow)" opacity="0.7"/>
  
  <circle cx="1300" cy="1800" r="2" fill="#22d3ee" opacity="1"/>
  <circle cx="1300" cy="1800" r="5" fill="url(#cyanGlow)" opacity="0.7"/>
  
  <circle cx="700" cy="1500" r="2" fill="#22d3ee" opacity="1"/>
  <circle cx="700" cy="1500" r="5" fill="url(#cyanGlow)" opacity="0.7"/>
</svg> 