<svg width="100%" height="100%" xmlns="http://www.w3.org/2000/svg">
  <defs>
    <radialGradient id="star" cx="50%" cy="50%" r="50%" fx="50%" fy="50%">
      <stop offset="0%" stop-color="white" stop-opacity="0.9" />
      <stop offset="100%" stop-color="white" stop-opacity="0" />
    </radialGradient>
  </defs>
  
  <!-- Small stars -->
  <g fill="url(#star)">
    <circle cx="10%" cy="20%" r="1" />
    <circle cx="20%" cy="10%" r="0.8" />
    <circle cx="30%" cy="30%" r="1.2" />
    <circle cx="40%" cy="15%" r="0.9" />
    <circle cx="50%" cy="40%" r="1" />
    <circle cx="60%" cy="25%" r="0.7" />
    <circle cx="70%" cy="70%" r="1.1" />
    <circle cx="80%" cy="35%" r="0.8" />
    <circle cx="90%" cy="80%" r="1" />
    <circle cx="95%" cy="60%" r="0.9" />
    <circle cx="5%" cy="90%" r="1.2" />
    <circle cx="15%" cy="55%" r="0.7" />
    <circle cx="25%" cy="85%" r="1" />
    <circle cx="35%" cy="75%" r="0.8" />
    <circle cx="45%" cy="95%" r="1.1" />
    <circle cx="55%" cy="5%" r="0.9" />
    <circle cx="65%" cy="45%" r="1" />
    <circle cx="75%" cy="65%" r="0.8" />
    <circle cx="85%" cy="15%" r="1.2" />
    <circle cx="92%" cy="33%" r="0.7" />
  </g>
  
  <!-- Medium stars -->
  <g fill="url(#star)">
    <circle cx="12%" cy="42%" r="1.5" />
    <circle cx="27%" cy="17%" r="1.4" />
    <circle cx="37%" cy="57%" r="1.6" />
    <circle cx="52%" cy="22%" r="1.3" />
    <circle cx="67%" cy="52%" r="1.5" />
    <circle cx="77%" cy="27%" r="1.4" />
    <circle cx="87%" cy="62%" r="1.6" />
    <circle cx="97%" cy="87%" r="1.3" />
  </g>
  
  <!-- Few larger stars -->
  <g fill="url(#star)">
    <circle cx="22%" cy="72%" r="2" />
    <circle cx="47%" cy="82%" r="2.2" />
    <circle cx="72%" cy="7%" r="1.9" />
    <circle cx="82%" cy="47%" r="2.1" />
  </g>
</svg> 