<svg width="150" height="48" viewBox="0 0 150 48" fill="none" xmlns="http://www.w3.org/2000/svg">
  <path d="M10 14H38V20H28V34H20V20H10V14Z" fill="white"/>
  <path d="M44 14C44 14 51 26 51 34H57C57 26 64 14 64 14H57C57 14 54 20 51 24C48 20 45 14 45 14H44Z" fill="white"/>
  <path d="M69 14H83C87.4183 14 91 17.5817 91 22C91 26.4183 87.4183 30 83 30H75V34H69V14ZM75 19V25H83C84.1046 25 85 23.8807 85 22.5C85 21.1193 84.1046 20 83 20H75V19Z" fill="white"/>
  <path d="M95 14H101V25C101 27.7614 103.239 30 106 30C108.761 30 111 27.7614 111 25V14H117V25C117 31.0751 112.075 36 106 36C99.9249 36 95 31.0751 95 25V14Z" fill="white"/>
  <path d="M123 14H139V18H130V22H137V26H130V30H139V34H123V14Z" fill="white"/>
</svg> 