<svg width="150" height="48" viewBox="0 0 150 48" fill="none" xmlns="http://www.w3.org/2000/svg">
  <path d="M10 24C10 17.3726 15.3726 12 22 12H26C32.6274 12 38 17.3726 38 24C38 30.6274 32.6274 36 26 36H22C15.3726 36 10 30.6274 10 24Z" stroke="white" stroke-width="2"/>
  <path fill-rule="evenodd" clip-rule="evenodd" d="M24 17C20.6863 17 18 19.6863 18 23V25C18 28.3137 20.6863 31 24 31C27.3137 31 30 28.3137 30 25V23C30 19.6863 27.3137 17 24 17ZM24 21C22.8954 21 22 21.8954 22 23V25C22 26.1046 22.8954 27 24 27C25.1046 27 26 26.1046 26 25V23C26 21.8954 25.1046 21 24 21Z" fill="white"/>
  <path d="M45 15H52L64 26V15H70V35H63L51 23V35H45V15Z" fill="white"/>
  <path d="M73 15H93V20H80V22H90V27H80V30H93V35H73V15Z" fill="white"/>
  <path d="M96 15H103L115 26V15H121V35H114L102 23V35H96V15Z" fill="white"/>
  <path d="M124 15H131V30H140V35H124V15Z" fill="white"/>
</svg> 