<svg width="150" height="48" viewBox="0 0 150 48" fill="none" xmlns="http://www.w3.org/2000/svg">
  <path d="M24 10C15.7157 10 9 16.7157 9 25C9 33.2843 15.7157 40 24 40C32.2843 40 39 33.2843 39 25C39 16.7157 32.2843 10 24 10ZM24 15C29.5228 15 34 19.4772 34 25C34 30.5228 29.5228 35 24 35C18.4772 35 14 30.5228 14 25C14 19.4772 18.4772 15 24 15Z" fill="white"/>
  <path d="M24 21C21.7909 21 20 22.7909 20 25C20 27.2091 21.7909 29 24 29C26.2091 29 28 27.2091 28 25C28 22.7909 26.2091 21 24 21Z" fill="white"/>
  <path d="M50 16H65V20H55V23H63V27H55V30H65V34H50V16Z" fill="white"/>
  <path d="M70 16H75V30H84V34H70V16Z" fill="white"/>
  <path d="M90 16H105V20H95V23H103V27H95V30H105V34H90V16Z" fill="white"/>
  <path d="M110 16H115V23H120L125 16H131L124 25L131 34H125L120 27H115V34H110V16Z" fill="white"/>
</svg> 