<svg width="1600" height="900" viewBox="0 0 1600 900" xmlns="http://www.w3.org/2000/svg">
  <defs>
    <radialGradient id="starGlow" cx="0.5" cy="0.5" r="0.5" fx="0.5" fy="0.5">
      <stop offset="0%" stop-color="white" stop-opacity="1"/>
      <stop offset="100%" stop-color="white" stop-opacity="0"/>
    </radialGradient>
    <radialGradient id="blueGlow" cx="0.5" cy="0.5" r="0.5" fx="0.5" fy="0.5">
      <stop offset="0%" stop-color="#8BB8E8" stop-opacity="1"/>
      <stop offset="100%" stop-color="#8BB8E8" stop-opacity="0"/>
    </radialGradient>
    <radialGradient id="purpleGlow" cx="0.5" cy="0.5" r="0.5" fx="0.5" fy="0.5">
      <stop offset="0%" stop-color="#A78BF3" stop-opacity="1"/>
      <stop offset="100%" stop-color="#A78BF3" stop-opacity="0"/>
    </radialGradient>
    <radialGradient id="amberGlow" cx="0.5" cy="0.5" r="0.5" fx="0.5" fy="0.5">
      <stop offset="0%" stop-color="#FFBF60" stop-opacity="1"/>
      <stop offset="100%" stop-color="#FFBF60" stop-opacity="0"/>
    </radialGradient>
  </defs>
  
  <!-- Layer 3: Foreground stars (larger, brighter) -->
  <!-- Scattered foreground stars -->
  <circle cx="120" cy="180" r="2.5" fill="white" opacity="0.9"/>
  <circle cx="480" cy="320" r="3.0" fill="white" opacity="0.95"/>
  <circle cx="830" cy="150" r="2.8" fill="white" opacity="0.9"/>
  <circle cx="1150" cy="270" r="3.2" fill="white" opacity="0.95"/>
  <circle cx="270" cy="520" r="2.7" fill="white" opacity="0.9"/>
  <circle cx="750" cy="630" r="3.1" fill="white" opacity="0.95"/>
  <circle cx="1320" cy="420" r="2.9" fill="white" opacity="0.9"/>
  <circle cx="1500" cy="680" r="3.3" fill="white" opacity="0.95"/>
  <circle cx="380" cy="780" r="2.8" fill="white" opacity="0.9"/>
  <circle cx="980" cy="820" r="3.0" fill="white" opacity="0.95"/>
  
  <!-- Medium stars with glow effect -->
  <circle cx="210" cy="350" r="4" fill="url(#starGlow)" opacity="0.9"/>
  <circle cx="580" cy="160" r="3.5" fill="url(#starGlow)" opacity="0.95"/>
  <circle cx="920" cy="420" r="4.2" fill="url(#starGlow)" opacity="0.9"/>
  <circle cx="1260" cy="180" r="3.8" fill="url(#starGlow)" opacity="0.95"/>
  <circle cx="320" cy="670" r="3.9" fill="url(#starGlow)" opacity="0.9"/>
  <circle cx="1450" cy="370" r="4.1" fill="url(#starGlow)" opacity="0.95"/>
  <circle cx="700" cy="790" r="3.7" fill="url(#starGlow)" opacity="0.9"/>
  <circle cx="1100" cy="600" r="4" fill="url(#starGlow)" opacity="0.95"/>
  
  <!-- Large bright stars with strong glow -->
  <circle cx="350" cy="250" r="4.5" fill="url(#blueGlow)" opacity="0.95"/>
  <circle cx="1050" cy="400" r="5" fill="url(#purpleGlow)" opacity="0.95"/>
  <circle cx="650" cy="500" r="4.8" fill="url(#amberGlow)" opacity="0.95"/>
  <circle cx="1400" cy="200" r="5.2" fill="url(#starGlow)" opacity="0.95"/>
  <circle cx="250" cy="750" r="4.7" fill="url(#blueGlow)" opacity="0.95"/>
  <circle cx="850" cy="300" r="5.5" fill="url(#purpleGlow)" opacity="0.95"/>
  <circle cx="1200" cy="680" r="4.9" fill="url(#amberGlow)" opacity="0.95"/>
  
  <!-- A few extra bright focal stars -->
  <circle cx="180" cy="480" r="6" fill="url(#starGlow)" opacity="0.98">
    <animate attributeName="opacity" values="0.98;0.8;0.98" dur="3s" repeatCount="indefinite"/>
  </circle>
  <circle cx="780" cy="220" r="6.5" fill="url(#blueGlow)" opacity="0.98">
    <animate attributeName="opacity" values="0.98;0.85;0.98" dur="4s" repeatCount="indefinite"/>
  </circle>
  <circle cx="1350" cy="520" r="6.2" fill="url(#purpleGlow)" opacity="0.98">
    <animate attributeName="opacity" values="0.98;0.82;0.98" dur="3.5s" repeatCount="indefinite"/>
  </circle>
  <circle cx="530" cy="720" r="6.3" fill="url(#amberGlow)" opacity="0.98">
    <animate attributeName="opacity" values="0.98;0.8;0.98" dur="4.2s" repeatCount="indefinite"/>
  </circle>
  
  <!-- Additional small stars to fill space -->
  <circle cx="90" cy="120" r="2" fill="white" opacity="0.8"/>
  <circle cx="420" cy="220" r="2.2" fill="white" opacity="0.85"/>
  <circle cx="740" cy="90" r="2.1" fill="white" opacity="0.8"/>
  <circle cx="1020" cy="170" r="2.3" fill="white" opacity="0.85"/>
  <circle cx="1320" cy="120" r="2" fill="white" opacity="0.8"/>
  <circle cx="1520" cy="230" r="2.2" fill="white" opacity="0.85"/>
  <circle cx="160" cy="290" r="2.1" fill="white" opacity="0.8"/>
  <circle cx="510" cy="370" r="2.3" fill="white" opacity="0.85"/>
  <circle cx="880" cy="360" r="2" fill="white" opacity="0.8"/>
  <circle cx="1180" cy="340" r="2.2" fill="white" opacity="0.85"/>
  <circle cx="1470" cy="310" r="2.1" fill="white" opacity="0.8"/>
  <circle cx="250" cy="450" r="2.3" fill="white" opacity="0.85"/>
  <circle cx="630" cy="420" r="2" fill="white" opacity="0.8"/>
  <circle cx="950" cy="480" r="2.2" fill="white" opacity="0.85"/>
  <circle cx="1280" cy="470" r="2.1" fill="white" opacity="0.8"/>
  <circle cx="390" cy="570" r="2.3" fill="white" opacity="0.85"/>
  <circle cx="690" cy="560" r="2" fill="white" opacity="0.8"/>
  <circle cx="1070" cy="540" r="2.2" fill="white" opacity="0.85"/>
  <circle cx="1420" cy="590" r="2.1" fill="white" opacity="0.8"/>
  <circle cx="220" cy="640" r="2.3" fill="white" opacity="0.85"/>
  <circle cx="570" cy="660" r="2" fill="white" opacity="0.8"/>
  <circle cx="940" cy="620" r="2.2" fill="white" opacity="0.85"/>
  <circle cx="1250" cy="650" r="2.1" fill="white" opacity="0.8"/>
  <circle cx="1490" cy="630" r="2.3" fill="white" opacity="0.85"/>
  <circle cx="120" cy="710" r="2" fill="white" opacity="0.8"/>
  <circle cx="460" cy="730" r="2.2" fill="white" opacity="0.85"/>
  <circle cx="800" cy="700" r="2.1" fill="white" opacity="0.8"/>
  <circle cx="1130" cy="750" r="2.3" fill="white" opacity="0.85"/>
  <circle cx="1380" cy="740" r="2" fill="white" opacity="0.8"/>
  <circle cx="300" cy="810" r="2.2" fill="white" opacity="0.85"/>
  <circle cx="640" cy="840" r="2.1" fill="white" opacity="0.8"/>
  <circle cx="920" cy="780" r="2.3" fill="white" opacity="0.85"/>
  <circle cx="1290" cy="820" r="2" fill="white" opacity="0.8"/>
  <circle cx="1530" cy="790" r="2.2" fill="white" opacity="0.85"/>
</svg> 