<svg width="1600" height="900" viewBox="0 0 1600 900" xmlns="http://www.w3.org/2000/svg">
  <defs>
    <radialGradient id="starGlow" cx="0.5" cy="0.5" r="0.5" fx="0.5" fy="0.5">
      <stop offset="0%" stop-color="white" stop-opacity="0.8"/>
      <stop offset="100%" stop-color="white" stop-opacity="0"/>
    </radialGradient>
  </defs>
  
  <!-- Layer 1 Stars: Distant, sparse, small -->
  <!-- Row 1 -->
  <circle cx="120" cy="80" r="1" fill="white" opacity="0.6"/>
  <circle cx="350" cy="120" r="1.2" fill="white" opacity="0.5"/>
  <circle cx="580" cy="60" r="1" fill="white" opacity="0.7"/>
  <circle cx="820" cy="150" r="1.5" fill="white" opacity="0.5"/>
  <circle cx="1050" cy="90" r="1" fill="white" opacity="0.6"/>
  <circle cx="1280" cy="110" r="1.3" fill="white" opacity="0.5"/>
  <circle cx="1520" cy="70" r="1" fill="white" opacity="0.7"/>
  
  <!-- Row 2 -->
  <circle cx="200" cy="240" r="1" fill="white" opacity="0.5"/>
  <circle cx="450" cy="220" r="1.2" fill="white" opacity="0.6"/>
  <circle cx="680" cy="260" r="1" fill="white" opacity="0.7"/>
  <circle cx="920" cy="230" r="1.3" fill="white" opacity="0.5"/>
  <circle cx="1150" cy="250" r="1" fill="white" opacity="0.6"/>
  <circle cx="1380" cy="210" r="1.4" fill="white" opacity="0.5"/>
  <circle cx="1580" cy="240" r="1" fill="white" opacity="0.6"/>
  
  <!-- Row 3 -->
  <circle cx="150" cy="360" r="1" fill="white" opacity="0.6"/>
  <circle cx="380" cy="380" r="1.2" fill="white" opacity="0.5"/>
  <circle cx="610" cy="340" r="1" fill="white" opacity="0.7"/>
  <circle cx="850" cy="390" r="1.5" fill="white" opacity="0.5"/>
  <circle cx="1080" cy="360" r="1" fill="white" opacity="0.6"/>
  <circle cx="1310" cy="370" r="1.3" fill="white" opacity="0.5"/>
  <circle cx="1540" cy="350" r="1" fill="white" opacity="0.7"/>
  
  <!-- Row 4 -->
  <circle cx="230" cy="480" r="1" fill="white" opacity="0.5"/>
  <circle cx="460" cy="450" r="1.2" fill="white" opacity="0.6"/>
  <circle cx="690" cy="470" r="1" fill="white" opacity="0.7"/>
  <circle cx="930" cy="440" r="1.3" fill="white" opacity="0.5"/>
  <circle cx="1170" cy="460" r="1" fill="white" opacity="0.6"/>
  <circle cx="1400" cy="430" r="1.4" fill="white" opacity="0.5"/>
  <circle cx="1550" cy="450" r="1" fill="white" opacity="0.6"/>
  
  <!-- Row 5 -->
  <circle cx="180" cy="560" r="1" fill="white" opacity="0.6"/>
  <circle cx="410" cy="590" r="1.2" fill="white" opacity="0.5"/>
  <circle cx="640" cy="550" r="1" fill="white" opacity="0.7"/>
  <circle cx="880" cy="580" r="1.5" fill="white" opacity="0.5"/>
  <circle cx="1120" cy="560" r="1" fill="white" opacity="0.6"/>
  <circle cx="1340" cy="570" r="1.3" fill="white" opacity="0.5"/>
  <circle cx="1570" cy="540" r="1" fill="white" opacity="0.7"/>
  
  <!-- Row 6 -->
  <circle cx="250" cy="680" r="1" fill="white" opacity="0.5"/>
  <circle cx="480" cy="650" r="1.2" fill="white" opacity="0.6"/>
  <circle cx="710" cy="670" r="1" fill="white" opacity="0.7"/>
  <circle cx="950" cy="640" r="1.3" fill="white" opacity="0.5"/>
  <circle cx="1190" cy="660" r="1" fill="white" opacity="0.6"/>
  <circle cx="1420" cy="630" r="1.4" fill="white" opacity="0.5"/>
  <circle cx="1560" cy="650" r="1" fill="white" opacity="0.6"/>
  
  <!-- Row 7 -->
  <circle cx="130" cy="760" r="1" fill="white" opacity="0.6"/>
  <circle cx="370" cy="790" r="1.2" fill="white" opacity="0.5"/>
  <circle cx="600" cy="750" r="1" fill="white" opacity="0.7"/>
  <circle cx="840" cy="780" r="1.5" fill="white" opacity="0.5"/>
  <circle cx="1070" cy="760" r="1" fill="white" opacity="0.6"/>
  <circle cx="1310" cy="770" r="1.3" fill="white" opacity="0.5"/>
  <circle cx="1530" cy="740" r="1" fill="white" opacity="0.7"/>
  
  <!-- Row 8 -->
  <circle cx="220" cy="880" r="1" fill="white" opacity="0.5"/>
  <circle cx="450" cy="850" r="1.2" fill="white" opacity="0.6"/>
  <circle cx="680" cy="870" r="1" fill="white" opacity="0.7"/>
  <circle cx="920" cy="840" r="1.3" fill="white" opacity="0.5"/>
  <circle cx="1160" cy="860" r="1" fill="white" opacity="0.6"/>
  <circle cx="1390" cy="830" r="1.4" fill="white" opacity="0.5"/>
  <circle cx="1520" cy="850" r="1" fill="white" opacity="0.6"/>
  
  <!-- A few slightly larger stars with glow -->
  <circle cx="280" cy="150" r="1.8" fill="white" opacity="0.8"/>
  <circle cx="780" cy="320" r="2" fill="white" opacity="0.8"/>
  <circle cx="1320" cy="480" r="1.9" fill="white" opacity="0.8"/>
  <circle cx="520" cy="750" r="2.1" fill="white" opacity="0.8"/>
  <circle cx="1200" cy="220" r="1.7" fill="white" opacity="0.8"/>
  <circle cx="900" cy="680" r="2.2" fill="white" opacity="0.8"/>
</svg> 