<svg width="1600" height="900" viewBox="0 0 1600 900" xmlns="http://www.w3.org/2000/svg">
  <defs>
    <radialGradient id="starGlow" cx="0.5" cy="0.5" r="0.5" fx="0.5" fy="0.5">
      <stop offset="0%" stop-color="white" stop-opacity="0.9"/>
      <stop offset="100%" stop-color="white" stop-opacity="0"/>
    </radialGradient>
  </defs>
  
  <!-- Layer 2 Stars: Medium distance, higher density -->
  <!-- Row 1 -->
  <circle cx="80" cy="50" r="1.2" fill="white" opacity="0.7"/>
  <circle cx="210" cy="120" r="1.5" fill="white" opacity="0.6"/>
  <circle cx="320" cy="70" r="1.2" fill="white" opacity="0.8"/>
  <circle cx="450" cy="100" r="1.7" fill="white" opacity="0.7"/>
  <circle cx="590" cy="60" r="1.3" fill="white" opacity="0.7"/>
  <circle cx="720" cy="130" r="1.5" fill="white" opacity="0.6"/>
  <circle cx="850" cy="80" r="1.2" fill="white" opacity="0.8"/>
  <circle cx="970" cy="110" r="1.7" fill="white" opacity="0.7"/>
  <circle cx="1100" cy="50" r="1.3" fill="white" opacity="0.7"/>
  <circle cx="1240" cy="120" r="1.5" fill="white" opacity="0.6"/>
  <circle cx="1380" cy="70" r="1.2" fill="white" opacity="0.8"/>
  <circle cx="1520" cy="100" r="1.7" fill="white" opacity="0.7"/>
  
  <!-- Row 2 -->
  <circle cx="130" cy="180" r="1.3" fill="white" opacity="0.7"/>
  <circle cx="250" cy="230" r="1.6" fill="white" opacity="0.6"/>
  <circle cx="380" cy="190" r="1.3" fill="white" opacity="0.8"/>
  <circle cx="510" cy="220" r="1.8" fill="white" opacity="0.7"/>
  <circle cx="640" cy="170" r="1.4" fill="white" opacity="0.7"/>
  <circle cx="770" cy="240" r="1.6" fill="white" opacity="0.6"/>
  <circle cx="900" cy="200" r="1.3" fill="white" opacity="0.8"/>
  <circle cx="1030" cy="230" r="1.8" fill="white" opacity="0.7"/>
  <circle cx="1160" cy="180" r="1.4" fill="white" opacity="0.7"/>
  <circle cx="1290" cy="240" r="1.6" fill="white" opacity="0.6"/>
  <circle cx="1420" cy="190" r="1.3" fill="white" opacity="0.8"/>
  <circle cx="1550" cy="220" r="1.8" fill="white" opacity="0.7"/>
  
  <!-- Row 3 -->
  <circle cx="60" cy="310" r="1.2" fill="white" opacity="0.7"/>
  <circle cx="190" cy="360" r="1.5" fill="white" opacity="0.6"/>
  <circle cx="320" cy="320" r="1.2" fill="white" opacity="0.8"/>
  <circle cx="450" cy="370" r="1.7" fill="white" opacity="0.7"/>
  <circle cx="580" cy="330" r="1.3" fill="white" opacity="0.7"/>
  <circle cx="710" cy="380" r="1.5" fill="white" opacity="0.6"/>
  <circle cx="840" cy="340" r="1.2" fill="white" opacity="0.8"/>
  <circle cx="970" cy="390" r="1.7" fill="white" opacity="0.7"/>
  <circle cx="1100" cy="350" r="1.3" fill="white" opacity="0.7"/>
  <circle cx="1230" cy="400" r="1.5" fill="white" opacity="0.6"/>
  <circle cx="1360" cy="360" r="1.2" fill="white" opacity="0.8"/>
  <circle cx="1490" cy="410" r="1.7" fill="white" opacity="0.7"/>
  
  <!-- Row 4 -->
  <circle cx="110" cy="440" r="1.3" fill="white" opacity="0.7"/>
  <circle cx="240" cy="490" r="1.6" fill="white" opacity="0.6"/>
  <circle cx="370" cy="450" r="1.3" fill="white" opacity="0.8"/>
  <circle cx="500" cy="500" r="1.8" fill="white" opacity="0.7"/>
  <circle cx="630" cy="460" r="1.4" fill="white" opacity="0.7"/>
  <circle cx="760" cy="510" r="1.6" fill="white" opacity="0.6"/>
  <circle cx="890" cy="470" r="1.3" fill="white" opacity="0.8"/>
  <circle cx="1020" cy="520" r="1.8" fill="white" opacity="0.7"/>
  <circle cx="1150" cy="480" r="1.4" fill="white" opacity="0.7"/>
  <circle cx="1280" cy="530" r="1.6" fill="white" opacity="0.6"/>
  <circle cx="1410" cy="490" r="1.3" fill="white" opacity="0.8"/>
  <circle cx="1540" cy="540" r="1.8" fill="white" opacity="0.7"/>
  
  <!-- Row 5 -->
  <circle cx="70" cy="570" r="1.2" fill="white" opacity="0.7"/>
  <circle cx="200" cy="620" r="1.5" fill="white" opacity="0.6"/>
  <circle cx="330" cy="580" r="1.2" fill="white" opacity="0.8"/>
  <circle cx="460" cy="630" r="1.7" fill="white" opacity="0.7"/>
  <circle cx="590" cy="590" r="1.3" fill="white" opacity="0.7"/>
  <circle cx="720" cy="640" r="1.5" fill="white" opacity="0.6"/>
  <circle cx="850" cy="600" r="1.2" fill="white" opacity="0.8"/>
  <circle cx="980" cy="650" r="1.7" fill="white" opacity="0.7"/>
  <circle cx="1110" cy="610" r="1.3" fill="white" opacity="0.7"/>
  <circle cx="1240" cy="660" r="1.5" fill="white" opacity="0.6"/>
  <circle cx="1370" cy="620" r="1.2" fill="white" opacity="0.8"/>
  <circle cx="1500" cy="670" r="1.7" fill="white" opacity="0.7"/>
  
  <!-- Row 6 -->
  <circle cx="120" cy="700" r="1.3" fill="white" opacity="0.7"/>
  <circle cx="250" cy="750" r="1.6" fill="white" opacity="0.6"/>
  <circle cx="380" cy="710" r="1.3" fill="white" opacity="0.8"/>
  <circle cx="510" cy="760" r="1.8" fill="white" opacity="0.7"/>
  <circle cx="640" cy="720" r="1.4" fill="white" opacity="0.7"/>
  <circle cx="770" cy="770" r="1.6" fill="white" opacity="0.6"/>
  <circle cx="900" cy="730" r="1.3" fill="white" opacity="0.8"/>
  <circle cx="1030" cy="780" r="1.8" fill="white" opacity="0.7"/>
  <circle cx="1160" cy="740" r="1.4" fill="white" opacity="0.7"/>
  <circle cx="1290" cy="790" r="1.6" fill="white" opacity="0.6"/>
  <circle cx="1420" cy="750" r="1.3" fill="white" opacity="0.8"/>
  <circle cx="1550" cy="800" r="1.8" fill="white" opacity="0.7"/>
  
  <!-- Row 7 -->
  <circle cx="80" cy="830" r="1.2" fill="white" opacity="0.7"/>
  <circle cx="210" cy="880" r="1.5" fill="white" opacity="0.6"/>
  <circle cx="340" cy="840" r="1.2" fill="white" opacity="0.8"/>
  <circle cx="470" cy="890" r="1.7" fill="white" opacity="0.7"/>
  <circle cx="600" cy="850" r="1.3" fill="white" opacity="0.7"/>
  <circle cx="730" cy="900" r="1.5" fill="white" opacity="0.6"/>
  <circle cx="860" cy="860" r="1.2" fill="white" opacity="0.8"/>
  <circle cx="990" cy="895" r="1.7" fill="white" opacity="0.7"/>
  <circle cx="1120" cy="855" r="1.3" fill="white" opacity="0.7"/>
  <circle cx="1250" cy="890" r="1.5" fill="white" opacity="0.6"/>
  <circle cx="1380" cy="850" r="1.2" fill="white" opacity="0.8"/>
  <circle cx="1510" cy="895" r="1.7" fill="white" opacity="0.7"/>
  
  <!-- Medium stars with glow -->
  <circle cx="150" cy="250" r="2" fill="white" opacity="0.8"/>
  <circle cx="670" cy="320" r="2.2" fill="white" opacity="0.9"/>
  <circle cx="1200" cy="180" r="2.4" fill="white" opacity="0.8"/>
  <circle cx="850" cy="650" r="2.3" fill="white" opacity="0.9"/>
  <circle cx="350" cy="500" r="2.1" fill="white" opacity="0.8"/>
  <circle cx="980" cy="420" r="2.5" fill="white" opacity="0.9"/>
  <circle cx="1450" cy="720" r="2.2" fill="white" opacity="0.8"/>
  <circle cx="550" cy="800" r="2.3" fill="white" opacity="0.9"/>
  
  <!-- A few slightly brighter stars with light glow effect -->
  <circle cx="580" cy="230" r="2.5" fill="white" opacity="0.9"/>
  <circle cx="980" cy="520" r="2.8" fill="white" opacity="0.9"/>
  <circle cx="1350" cy="300" r="2.6" fill="white" opacity="0.9"/>
  <circle cx="400" cy="720" r="2.7" fill="white" opacity="0.9"/>
  
  <!-- Occasional bigger stars with radial gradient glow -->
  <circle cx="250" cy="400" r="3" fill="url(#starGlow)" opacity="0.9"/>
  <circle cx="1100" cy="250" r="3.5" fill="url(#starGlow)" opacity="0.9"/>
  <circle cx="750" cy="700" r="3.2" fill="url(#starGlow)" opacity="0.9"/>
  <circle cx="1450" cy="550" r="3.3" fill="url(#starGlow)" opacity="0.9"/>
</svg> 