<svg width="1000" height="1000" xmlns="http://www.w3.org/2000/svg">
  <rect width="1000" height="1000" fill="transparent"/>
  
  <!-- Medium density stars - middle layer -->
  <circle cx="120" cy="170" r="1.2" fill="white" opacity="0.5"/>
  <circle cx="233" cy="362" r="1.5" fill="white" opacity="0.6"/>
  <circle cx="476" cy="143" r="1.2" fill="white" opacity="0.5"/>
  <circle cx="809" cy="476" r="2" fill="white" opacity="0.7"/>
  <circle cx="254" cy="698" r="1.2" fill="white" opacity="0.5"/>
  <circle cx="587" cy="910" r="1.5" fill="white" opacity="0.6"/>
  <circle cx="910" cy="254" r="1.2" fill="white" opacity="0.5"/>
  <circle cx="365" cy="587" r="2" fill="white" opacity="0.7"/>
  <circle cx="698" cy="143" r="1.2" fill="white" opacity="0.5"/>
  <circle cx="143" cy="809" r="1.5" fill="white" opacity="0.6"/>
  
  <circle cx="440" cy="370" r="1.2" fill="white" opacity="0.5"/>
  <circle cx="673" cy="562" r="1.5" fill="white" opacity="0.6"/>
  <circle cx="176" cy="843" r="1.2" fill="white" opacity="0.5"/>
  <circle cx="309" cy="176" r="2" fill="white" opacity="0.7"/>
  <circle cx="954" cy="698" r="1.2" fill="white" opacity="0.5"/>
  <circle cx="787" cy="310" r="1.5" fill="white" opacity="0.6"/>
  <circle cx="510" cy="954" r="1.2" fill="white" opacity="0.5"/>
  <circle cx="865" cy="587" r="2" fill="white" opacity="0.7"/>
  <circle cx="298" cy="443" r="1.2" fill="white" opacity="0.5"/>
  <circle cx="543" cy="209" r="1.5" fill="white" opacity="0.6"/>
  
  <!-- Additional stars for medium density -->
  <circle cx="186" cy="386" r="1" fill="white" opacity="0.4"/>
  <circle cx="734" cy="211" r="1.3" fill="white" opacity="0.5"/>
  <circle cx="412" cy="632" r="1" fill="white" opacity="0.4"/>
  <circle cx="853" cy="347" r="1.3" fill="white" opacity="0.5"/>
  <circle cx="145" cy="528" r="1" fill="white" opacity="0.4"/>
  <circle cx="624" cy="736" r="1.3" fill="white" opacity="0.5"/>
  <circle cx="378" cy="195" r="1" fill="white" opacity="0.4"/>
  <circle cx="912" cy="682" r="1.3" fill="white" opacity="0.5"/>
  <circle cx="523" cy="436" r="1" fill="white" opacity="0.4"/>
  <circle cx="267" cy="879" r="1.3" fill="white" opacity="0.5"/>
  
  <!-- A few brighter stars -->
  <circle cx="356" cy="245" r="2.5" fill="white" opacity="0.8"/>
  <circle cx="732" cy="534" r="2.2" fill="white" opacity="0.7"/>
  <circle cx="187" cy="632" r="2.5" fill="white" opacity="0.8"/>
  <circle cx="876" cy="187" r="2.2" fill="white" opacity="0.7"/>
</svg> 