<svg width="1000" height="1000" xmlns="http://www.w3.org/2000/svg">
  <rect width="1000" height="1000" fill="transparent"/>
  
  <!-- Sparse distant stars - deepest layer -->
  <circle cx="100" cy="150" r="1" fill="white" opacity="0.3"/>
  <circle cx="213" cy="342" r="1.2" fill="white" opacity="0.4"/>
  <circle cx="456" cy="123" r="1" fill="white" opacity="0.3"/>
  <circle cx="789" cy="456" r="1.5" fill="white" opacity="0.5"/>
  <circle cx="234" cy="678" r="1" fill="white" opacity="0.3"/>
  <circle cx="567" cy="890" r="1.2" fill="white" opacity="0.4"/>
  <circle cx="890" cy="234" r="1" fill="white" opacity="0.3"/>
  <circle cx="345" cy="567" r="1.5" fill="white" opacity="0.5"/>
  <circle cx="678" cy="123" r="1" fill="white" opacity="0.3"/>
  <circle cx="123" cy="789" r="1.2" fill="white" opacity="0.4"/>
  
  <circle cx="420" cy="350" r="1" fill="white" opacity="0.3"/>
  <circle cx="653" cy="542" r="1.2" fill="white" opacity="0.4"/>
  <circle cx="156" cy="823" r="1" fill="white" opacity="0.3"/>
  <circle cx="289" cy="156" r="1.5" fill="white" opacity="0.5"/>
  <circle cx="934" cy="678" r="1" fill="white" opacity="0.3"/>
  <circle cx="767" cy="290" r="1.2" fill="white" opacity="0.4"/>
  <circle cx="490" cy="934" r="1" fill="white" opacity="0.3"/>
  <circle cx="845" cy="567" r="1.5" fill="white" opacity="0.5"/>
  <circle cx="278" cy="423" r="1" fill="white" opacity="0.3"/>
  <circle cx="523" cy="189" r="1.2" fill="white" opacity="0.4"/>
</svg> 