<svg width="1000" height="1000" xmlns="http://www.w3.org/2000/svg">
  <rect width="1000" height="1000" fill="transparent"/>
  
  <!-- Dense foreground stars - brightest layer -->
  <circle cx="50" cy="75" r="1.5" fill="white" opacity="0.6"/>
  <circle cx="113" cy="172" r="2" fill="white" opacity="0.7"/>
  <circle cx="226" cy="61" r="1.5" fill="white" opacity="0.6"/>
  <circle cx="394" cy="228" r="2.5" fill="white" opacity="0.8"/>
  <circle cx="117" cy="339" r="1.5" fill="white" opacity="0.6"/>
  <circle cx="283" cy="445" r="2" fill="white" opacity="0.7"/>
  <circle cx="445" cy="117" r="1.5" fill="white" opacity="0.6"/>
  <circle cx="172" cy="283" r="2.5" fill="white" opacity="0.8"/>
  <circle cx="339" cy="61" r="1.5" fill="white" opacity="0.6"/>
  <circle cx="61" cy="394" r="2" fill="white" opacity="0.7"/>
  
  <circle cx="210" cy="175" r="1.5" fill="white" opacity="0.6"/>
  <circle cx="336" cy="271" r="2" fill="white" opacity="0.7"/>
  <circle cx="78" cy="411" r="1.5" fill="white" opacity="0.6"/>
  <circle cx="154" cy="78" r="2.5" fill="white" opacity="0.8"/>
  <circle cx="477" cy="339" r="1.5" fill="white" opacity="0.6"/>
  <circle cx="393" cy="145" r="2" fill="white" opacity="0.7"/>
  <circle cx="255" cy="477" r="1.5" fill="white" opacity="0.6"/>
  <circle cx="432" cy="283" r="2.5" fill="white" opacity="0.8"/>
  <circle cx="149" cy="211" r="1.5" fill="white" opacity="0.6"/>
  <circle cx="261" cy="94" r="2" fill="white" opacity="0.7"/>
  
  <!-- Additional stars for high density -->
  <circle cx="552" cy="175" r="1.8" fill="white" opacity="0.6"/>
  <circle cx="634" cy="271" r="2.2" fill="white" opacity="0.7"/>
  <circle cx="578" cy="411" r="1.8" fill="white" opacity="0.6"/>
  <circle cx="754" cy="78" r="2.7" fill="white" opacity="0.8"/>
  <circle cx="877" cy="339" r="1.8" fill="white" opacity="0.6"/>
  <circle cx="693" cy="145" r="2.2" fill="white" opacity="0.7"/>
  <circle cx="855" cy="477" r="1.8" fill="white" opacity="0.6"/>
  <circle cx="932" cy="283" r="2.7" fill="white" opacity="0.8"/>
  <circle cx="649" cy="211" r="1.8" fill="white" opacity="0.6"/>
  <circle cx="761" cy="94" r="2.2" fill="white" opacity="0.7"/>
  
  <circle cx="150" cy="575" r="1.7" fill="white" opacity="0.6"/>
  <circle cx="213" cy="672" r="2.1" fill="white" opacity="0.7"/>
  <circle cx="326" cy="561" r="1.7" fill="white" opacity="0.6"/>
  <circle cx="494" cy="728" r="2.6" fill="white" opacity="0.8"/>
  <circle cx="217" cy="839" r="1.7" fill="white" opacity="0.6"/>
  <circle cx="383" cy="945" r="2.1" fill="white" opacity="0.7"/>
  <circle cx="545" cy="617" r="1.7" fill="white" opacity="0.6"/>
  <circle cx="272" cy="783" r="2.6" fill="white" opacity="0.8"/>
  <circle cx="439" cy="561" r="1.7" fill="white" opacity="0.6"/>
  <circle cx="161" cy="894" r="2.1" fill="white" opacity="0.7"/>
  
  <circle cx="550" cy="575" r="1.7" fill="white" opacity="0.6"/>
  <circle cx="613" cy="672" r="2.1" fill="white" opacity="0.7"/>
  <circle cx="726" cy="561" r="1.7" fill="white" opacity="0.6"/>
  <circle cx="894" cy="728" r="2.6" fill="white" opacity="0.8"/>
  <circle cx="617" cy="839" r="1.7" fill="white" opacity="0.6"/>
  <circle cx="783" cy="945" r="2.1" fill="white" opacity="0.7"/>
  <circle cx="945" cy="617" r="1.7" fill="white" opacity="0.6"/>
  <circle cx="672" cy="783" r="2.6" fill="white" opacity="0.8"/>
  <circle cx="839" cy="561" r="1.7" fill="white" opacity="0.6"/>
  <circle cx="561" cy="894" r="2.1" fill="white" opacity="0.7"/>
  
  <!-- A few "twinkling" bright stars -->
  <circle cx="178" cy="325" r="3" fill="white" opacity="0.9"/>
  <circle cx="763" cy="215" r="3.5" fill="white" opacity="1.0"/>
  <circle cx="423" cy="678" r="3" fill="white" opacity="0.9"/>
  <circle cx="823" cy="456" r="3.5" fill="white" opacity="1.0"/>
</svg> 